<?xml version="1.0" standalone="no"?>
<!DOCTYPE svg PUBLIC "-//W3C//DTD SVG 20010904//EN"
 "http://www.w3.org/TR/2001/REC-SVG-20010904/DTD/svg10.dtd">
<svg version="1.0" xmlns="http://www.w3.org/2000/svg"
 width="553.000000pt" height="553.000000pt" viewBox="0 0 553.000000 553.000000"
 preserveAspectRatio="xMidYMid meet">
<metadata>
Created by potrace 1.11, written by Peter Selinger 2001-2013
</metadata>
<g transform="translate(0.000000,553.000000) scale(0.100000,-0.100000)"
fill="#000000" stroke="none">
<path d="M2880 5344 c-14 -2 -55 -9 -92 -15 -76 -12 -166 -63 -209 -118 -25
-31 -25 -31 -60 -17 -95 40 -377 45 -555 11 -136 -26 -294 -74 -380 -115 -82
-40 -227 -160 -212 -176 5 -4 18 4 30 18 95 104 358 227 358 167 0 -5 -5 -9
-11 -9 -8 0 -7 -6 2 -17 12 -15 12 -16 -4 -10 -10 4 -16 3 -13 -1 10 -17 -13
-31 -114 -65 -58 -19 -135 -49 -173 -67 -37 -17 -71 -29 -75 -26 -5 3 -31 -18
-58 -46 -42 -44 -44 -47 -13 -25 69 51 249 128 368 157 102 25 352 71 358 66
2 -2 -34 -21 -80 -44 -147 -75 -365 -213 -432 -273 -19 -17 -28 -17 -90 -7
-47 7 -159 8 -340 4 -303 -8 -399 -16 -416 -33 -20 -20 -13 -123 21 -318 37
-216 46 -256 65 -302 8 -20 15 -39 15 -44 0 -8 -92 -45 -149 -59 -26 -6 -4 -8
79 -7 l114 2 35 -65 c18 -36 43 -78 54 -94 20 -28 20 -30 3 -75 -102 -265
-121 -346 -120 -526 0 -82 4 -186 10 -230 l10 -80 8 70 c24 216 78 375 193
573 24 41 41 57 30 28 -27 -69 -38 -190 -41 -426 -4 -277 -16 -368 -70 -500
-42 -103 -18 -94 81 30 37 47 79 109 92 138 14 29 28 48 31 41 4 -6 10 9 12
33 3 23 11 57 18 73 12 29 13 26 30 -66 10 -52 34 -142 55 -200 74 -209 84
-241 100 -317 8 -43 19 -120 23 -172 l7 -95 51 110 c46 100 60 141 79 230 7
29 8 27 30 -33 26 -68 68 -133 110 -172 15 -14 34 -38 42 -55 13 -28 13 -26
10 43 -1 39 -2 72 -1 72 1 0 17 -14 35 -31 38 -36 86 -59 123 -59 41 0 39 -17
-9 -61 -84 -77 -162 -215 -190 -334 -26 -108 -14 -257 23 -287 13 -12 14 -10
3 10 -14 27 3 105 42 192 l25 55 1 -55 c1 -30 8 -103 17 -162 15 -104 11 -199
-12 -265 -4 -10 14 9 41 42 26 33 48 61 50 63 2 2 -3 -27 -10 -65 -16 -77 -36
-139 -90 -268 -51 -121 -74 -206 -82 -292 -4 -55 -3 -73 6 -73 18 0 181 92
181 102 0 10 -57 -13 -119 -48 -24 -13 -45 -24 -47 -24 -2 0 -4 15 -4 34 0 55
44 213 93 331 53 128 64 166 77 258 10 69 36 134 48 122 4 -3 12 -25 19 -47
10 -35 9 -54 -8 -122 -13 -54 -23 -149 -30 -281 -7 -139 -16 -220 -29 -265
-36 -125 -50 -202 -50 -277 0 -68 3 -78 25 -99 15 -14 25 -34 25 -51 0 -15 9
-42 19 -59 62 -102 166 -124 711 -150 297 -14 386 -15 545 -5 488 30 522 35
589 86 36 28 42 29 127 26 118 -4 129 1 129 49 0 56 -72 191 -130 243 -36 32
-40 38 -20 32 94 -30 247 -9 359 50 121 64 192 154 196 250 1 27 7 63 14 78
17 42 14 188 -5 244 -19 57 -83 151 -122 180 -51 38 -182 93 -182 77 0 -2 35
-21 78 -43 94 -47 143 -95 184 -179 25 -50 32 -79 34 -135 3 -57 1 -68 -8 -52
-21 39 -46 54 -90 56 -52 2 -142 -14 -160 -28 -19 -15 -50 -24 -43 -13 3 5 -6
12 -20 16 -14 3 -25 13 -25 23 0 14 -2 14 -11 1 -8 -11 -9 -7 -5 19 3 18 6 38
6 43 0 5 5 6 10 3 6 -3 10 -19 10 -35 0 -36 18 -49 25 -18 15 69 23 219 15
277 -11 80 -25 96 -15 18 8 -68 -3 -227 -16 -227 -5 0 -9 9 -9 20 0 38 -17 20
-40 -42 -12 -35 -32 -80 -45 -101 l-22 -37 -16 75 c-9 41 -35 117 -56 168 -36
84 -41 105 -51 227 -14 174 -24 239 -61 387 -29 112 -30 123 -16 144 15 20 14
25 -2 58 -10 20 -26 68 -35 106 -24 96 -55 156 -93 180 -18 11 -32 22 -32 25
0 3 35 34 77 70 114 96 206 190 241 246 17 27 31 41 31 32 0 -37 -33 -235 -46
-273 -7 -21 -12 -40 -10 -42 1 -1 25 21 53 50 66 67 156 193 199 278 64 128
101 322 91 482 l-6 100 42 -69 c73 -118 240 -314 268 -314 7 0 1 12 -14 28
-55 57 -105 210 -132 406 -9 61 -28 190 -43 286 -33 216 -33 283 1 435 34 153
47 301 47 540 0 278 -28 474 -73 516 -26 24 -61 21 -227 -18 -178 -41 -267
-72 -418 -145 l-85 -41 -23 26 c-36 42 -142 105 -210 127 -115 35 -275 61
-381 62 -57 0 -103 3 -103 7 0 12 247 83 348 99 l103 17 -76 24 c-58 18 -104
24 -198 26 -67 2 -133 2 -147 -1z m315 -32 c30 -9 30 -9 5 -15 -304 -64 -300
-63 -282 -45 10 10 8 16 -10 31 -13 10 -17 16 -10 12 6 -3 12 -1 12 4 0 6 -10
12 -22 12 -16 1 -12 4 12 10 42 10 253 3 295 -9z m1084 -161 c25 -16 51 -162
63 -359 10 -159 10 -195 -1 -202 -8 -4 -11 -13 -7 -19 4 -6 0 -44 -8 -84 -9
-41 -17 -95 -18 -120 -2 -25 -5 -44 -8 -42 -3 2 -11 -27 -18 -63 -14 -73 -50
-153 -91 -202 l-26 -31 -38 51 c-41 55 -42 70 -2 52 44 -20 28 5 -55 88 l-80
80 95 0 c52 0 95 3 95 8 0 6 -87 45 -188 84 l-34 13 92 39 c79 33 90 41 74 50
-11 6 -63 11 -116 11 l-96 0 25 35 c15 19 37 47 51 62 14 15 23 30 20 34 -6 6
-81 -31 -135 -67 -40 -25 -40 -21 -8 37 87 156 236 318 357 388 l47 27 7 -28
c19 -83 23 -88 21 -26 -2 60 -3 63 -27 63 -40 0 -149 -80 -259 -189 -56 -56
-109 -101 -119 -101 -27 1 -102 38 -108 55 -3 8 -12 15 -19 15 -19 0 -90 73
-76 78 9 3 8 8 -1 20 -7 8 -12 17 -10 19 12 16 -3 25 -35 20 -35 -6 -36 -6
-14 9 12 9 29 13 39 9 9 -3 13 -3 10 1 -32 31 257 135 492 178 95 17 92 17
109 7z m-682 -237 c-3 -3 -12 -4 -19 -1 -8 3 -5 6 6 6 11 1 17 -2 13 -5z
m-1941 -202 c72 -19 152 -35 305 -62 25 -5 128 -18 230 -30 163 -19 229 -21
579 -20 217 1 406 0 420 -3 14 -2 29 -5 33 -6 4 0 19 -13 32 -27 21 -23 25
-37 25 -90 0 -47 4 -64 14 -64 17 0 29 -104 20 -176 -7 -59 -34 -124 -52 -124
-7 0 -10 -4 -7 -10 3 -5 1 -10 -5 -10 -6 0 -9 -3 -7 -7 3 -5 1 -16 -2 -27 -6
-16 -9 -17 -22 -4 -24 24 -49 28 -79 13 -35 -18 -41 -36 -43 -123 -1 -37 -3
-55 -5 -39 -4 29 -22 38 -22 10 0 -15 -2 -14 -14 3 -14 19 -15 18 -23 -4 -7
-17 -12 4 -21 84 -11 96 -25 144 -40 129 -3 -3 -16 2 -29 10 -35 23 -51 8 -83
-81 -42 -118 -102 -237 -137 -273 -15 -14 -16 -8 -8 84 14 177 14 180 -17 183
-34 4 -68 -14 -68 -35 0 -13 -37 -88 -104 -210 -10 -18 -14 -3 -24 99 -9 89
-18 130 -33 155 -11 18 -24 33 -29 33 -5 0 -11 9 -15 19 -4 12 -12 18 -21 14
-9 -3 -14 1 -14 13 -1 37 -36 -51 -64 -161 -15 -60 -31 -119 -36 -130 -5 -11
-14 -33 -20 -49 -10 -26 -12 -27 -28 -13 -9 8 -34 17 -54 19 -31 3 -38 1 -41
-17 -4 -23 -6 -16 -27 86 -8 43 -16 59 -36 70 -14 7 -30 21 -35 30 -5 10 -23
20 -40 24 -23 5 -28 9 -18 16 11 7 9 9 -7 9 -12 0 -27 -7 -34 -15 -7 -8 -23
-15 -36 -15 -23 0 -55 -35 -83 -92 -14 -28 -48 -34 -63 -13 -5 6 -8 5 -8 -2 0
-8 -15 -13 -40 -13 -22 0 -40 -4 -40 -10 0 -5 -7 -10 -15 -10 -8 0 -15 4 -15
9 0 13 -57 31 -98 31 -25 0 -44 -8 -63 -26 -24 -23 -28 -24 -42 -10 -9 9 -33
16 -56 16 -42 0 -61 14 -42 33 19 19 13 62 -11 83 -47 39 -64 44 -97 28 -33
-16 -51 -12 -51 12 0 8 -5 12 -10 9 -6 -4 -8 -16 -4 -28 6 -21 5 -21 -12 -4
-16 15 -17 20 -6 38 12 19 11 20 -10 17 -16 -2 -22 -9 -21 -23 1 -11 0 -14 -4
-6 -4 11 -7 11 -14 0 -4 -7 -10 -11 -13 -8 -6 6 103 119 115 119 5 0 9 6 9 13
0 8 9 22 20 32 22 20 24 33 10 55 -7 11 -14 12 -32 4 -13 -6 -49 -23 -81 -38
-32 -14 -63 -24 -68 -20 -6 3 -16 -2 -23 -11 -7 -10 -19 -15 -27 -12 -9 4 -7
6 6 6 17 1 17 3 5 11 -8 5 -10 10 -4 10 6 0 49 44 95 98 46 53 86 99 90 102 3
3 39 46 81 95 42 50 98 110 124 135 122 112 147 132 153 122 3 -5 42 -19 87
-30z m-530 -12 c0 -11 -3 -20 -6 -20 -11 0 -10 -85 1 -135 9 -40 9 -57 0 -71
-9 -14 -11 -14 -8 -3 4 13 1 15 -14 12 -20 -6 -20 -6 1 -29 16 -16 -14 -5
-106 40 -227 110 -274 124 -283 81 -3 -17 -1 -18 13 -6 14 12 16 6 16 -70 0
-46 5 -91 10 -99 7 -10 8 17 4 84 l-7 98 24 -7 c34 -9 262 -125 291 -147 23
-17 22 -18 -44 -18 -39 0 -68 -4 -68 -10 0 -5 5 -10 10 -10 6 0 31 -10 56 -21
l45 -22 -43 -24 c-24 -13 -55 -36 -70 -51 -32 -29 -37 -56 -10 -48 43 12 82
17 82 10 0 -11 -110 -111 -158 -144 -24 -16 -49 -27 -55 -24 -7 2 -13 20 -14
40 -1 19 -8 43 -15 52 -9 11 -9 14 -1 8 9 -5 11 -2 7 8 -3 9 -10 13 -15 10 -5
-3 -9 7 -9 21 0 14 -4 24 -8 21 -12 -7 -72 336 -72 407 0 68 -10 64 185 76
246 14 261 14 261 -9z m2764 -184 c0 -2 -8 -10 -17 -17 -16 -13 -17 -12 -4 4
13 16 21 21 21 13z m-2930 -540 c-16 -25 -30 -47 -30 -50 0 -3 16 2 36 10 20
8 37 14 39 12 1 -2 -14 -34 -35 -71 -42 -76 -36 -78 -98 25 -41 69 -41 87 2
89 12 0 37 7 56 14 58 22 63 18 30 -29z m1984 -198 c3 -62 9 -127 12 -144 6
-29 4 -31 -38 -41 l-43 -11 45 -1 45 -1 23 -98 c13 -53 26 -102 28 -108 3 -7
-19 -14 -60 -18 -35 -3 -82 -13 -103 -22 -35 -14 -133 -99 -133 -115 0 -4 21
1 48 11 86 32 96 34 89 17 -4 -11 1 -17 20 -19 14 -2 35 -15 46 -30 19 -26 19
-28 3 -53 -15 -22 -24 -26 -49 -23 -18 3 -39 8 -49 12 -14 6 -17 -2 -23 -59
-18 -165 25 -298 117 -363 99 -70 285 -78 431 -17 11 4 17 3 17 -5 0 -17 -78
-171 -97 -192 -9 -10 -12 -18 -7 -18 20 0 115 99 158 165 49 74 51 74 35 5 -6
-25 -14 -90 -17 -145 l-7 -100 -65 -32 c-82 -40 -152 -65 -313 -112 -70 -21
-125 -40 -122 -43 3 -3 -70 -8 -162 -12 -92 -4 -211 -11 -263 -17 -108 -12
-109 -12 -410 66 -149 39 -208 59 -305 107 -137 68 -179 103 -194 161 -11 46
-7 58 12 35 23 -28 82 -66 135 -87 49 -20 53 -20 48 -4 -11 39 -54 221 -61
258 l-7 39 26 -26 c65 -64 273 -65 363 0 42 30 93 121 100 180 5 45 15 62 91
154 140 170 255 361 308 511 15 43 28 76 30 75 3 -4 -48 -192 -75 -273 -10
-33 -53 -145 -95 -249 -42 -104 -76 -193 -76 -199 0 -5 15 9 33 31 17 22 57
71 87 109 139 171 242 335 300 477 38 94 100 294 100 322 0 8 4 14 9 14 4 0
11 -51 15 -112z m108 87 c3 -13 1 -22 -3 -19 -9 5 -13 44 -5 44 2 0 6 -11 8
-25z m147 -469 c14 -34 12 -37 -16 -30 -24 7 -29 26 -37 159 l-6 80 24 -90
c13 -49 29 -103 35 -119z m-1179 -34 c0 -47 -21 -94 -35 -80 -6 6 11 101 22
121 9 16 13 5 13 -41z m-1203 -89 c-5 -38 -5 -38 7 -9 11 23 14 25 20 11 3 -9
3 -21 0 -27 -3 -5 -14 -48 -24 -96 l-19 -87 0 85 c-1 85 7 160 17 160 2 0 2
-17 -1 -37z m2372 -137 c12 -38 20 -70 18 -72 -6 -6 -96 153 -101 181 -5 24
-4 26 3 10 9 -18 10 -18 10 -2 1 10 6 15 11 12 6 -3 10 0 11 7 1 13 10 -12 48
-136z m-663 5 c-9 -10 -16 -20 -16 -24 0 -10 -42 -78 -46 -74 -8 8 18 67 28
61 5 -3 8 0 7 7 -3 21 12 50 22 43 5 -3 9 3 10 13 0 11 3 13 6 5 3 -7 -2 -21
-11 -31z m-431 -56 c10 -65 13 -70 51 -84 29 -10 38 -10 52 1 34 27 -17 -36
-86 -105 -65 -67 -142 -134 -142 -124 0 3 9 33 19 68 11 35 31 111 46 169 39
153 36 145 46 129 4 -7 11 -32 14 -54z m880 36 c7 -12 -12 -24 -25 -16 -11 7
-4 25 10 25 5 0 11 -4 15 -9z m-33 -117 c40 -6 47 -11 68 -50 49 -94 146 -111
219 -40 21 20 40 33 44 30 4 -4 7 1 7 10 0 15 6 17 38 12 20 -3 43 -7 51 -8
10 -1 12 -12 7 -47 -4 -25 -8 -62 -9 -81 -1 -24 -7 -36 -20 -38 -9 -2 -43 -19
-75 -39 -56 -34 -59 -34 -147 -31 -77 3 -98 8 -137 31 -26 15 -54 27 -63 27
-10 0 -15 7 -13 18 1 9 -6 35 -17 57 -10 22 -21 66 -23 98 -5 63 -7 61 70 51z
m-1044 -81 c19 -19 44 -33 58 -33 28 0 29 -6 8 -82 -19 -67 -30 -71 -97 -36
-23 12 -53 23 -67 23 -23 0 -25 3 -21 40 1 22 17 66 35 98 26 49 32 55 41 40
6 -10 25 -33 43 -50z m252 -52 c-5 -11 -10 -29 -10 -40 0 -12 -5 -21 -11 -21
-6 0 -23 -9 -38 -19 -32 -23 -111 -52 -111 -41 0 4 31 30 68 58 38 28 74 58
81 66 19 23 34 20 21 -3z m-453 -92 c-3 -12 -2 -29 3 -38 5 -9 16 -50 25 -91
9 -41 24 -94 32 -118 9 -23 13 -45 10 -48 -9 -9 -107 67 -100 78 3 6 1 8 -4 5
-6 -4 -19 6 -28 21 l-18 27 22 -20 c19 -16 24 -17 31 -5 6 8 10 20 10 25 0 6
5 3 11 -5 8 -11 9 -4 3 25 -12 68 -13 165 -2 165 6 0 8 -10 5 -21z m-677 -36
c-1 -21 -48 -78 -57 -69 -3 3 4 15 16 25 14 12 20 25 15 32 -4 8 -3 9 4 5 7
-4 12 -1 12 8 0 9 2 16 5 16 3 0 5 -8 5 -17z m2421 -18 c5 3 6 -1 3 -9 -3 -9
-9 -14 -13 -11 -4 2 -13 -13 -21 -33 -13 -38 -40 -81 -51 -82 -4 0 9 30 27 67
19 37 35 74 35 82 1 12 2 12 6 -2 2 -9 9 -15 14 -12z m-2490 -88 c-10 -9 -11
-8 -5 6 3 10 9 15 12 12 3 -3 0 -11 -7 -18z m2550 -26 c7 11 9 8 10 -11 3 -53
7 -67 23 -92 22 -34 75 -33 106 2 16 18 15 14 -4 -11 -38 -54 -147 -159 -165
-159 -9 0 -5 188 6 270 6 48 8 50 11 21 3 -26 6 -31 13 -20z m-1951 -11 c0 -5
-4 -10 -10 -10 -5 0 -10 5 -10 10 0 6 5 10 10 10 6 0 10 -4 10 -10z m-199 -39
c7 9 7 5 3 -15 -5 -21 -4 -27 5 -21 8 4 14 -1 18 -14 3 -12 10 -21 17 -21 6 0
17 -10 25 -21 10 -18 15 -19 22 -8 6 10 9 7 9 -11 0 -20 2 -22 11 -10 24 34 0
-89 -32 -165 l-34 -80 -7 75 c-9 88 -35 211 -55 259 -8 18 -11 41 -7 50 6 13
8 11 12 -8 3 -19 6 -21 13 -10z m209 3 c0 -8 -5 -12 -10 -9 -6 4 -8 11 -5 16
9 14 15 11 15 -7z m2391 -21 c-9 -11 -18 -19 -20 -17 -3 3 -11 -8 -17 -23
l-13 -28 6 30 c8 39 12 47 24 40 5 -4 9 -2 9 4 0 5 -6 11 -12 14 -7 2 -1 4 13
3 25 -1 25 -2 10 -23z m-2381 -13 c0 -5 -2 -10 -4 -10 -3 0 -8 5 -11 10 -3 6
-1 10 4 10 6 0 11 -4 11 -10z m8 -61 c-3 -8 -7 -3 -11 10 -4 17 -3 21 5 13 5
-5 8 -16 6 -23z m36 -50 c-3 -5 -2 -8 3 -7 4 2 18 -4 30 -13 18 -12 22 -25 21
-66 0 -28 3 -61 7 -72 10 -31 2 -26 -34 24 -19 27 -26 42 -17 39 9 -3 16 -11
16 -17 0 -6 3 -7 6 -4 4 4 1 13 -5 21 -7 8 -10 20 -6 26 3 5 3 15 -1 22 -5 8
-10 6 -15 -8 -6 -16 -8 -15 -8 9 -1 15 -5 27 -11 27 -5 0 -10 12 -10 26 0 22
2 25 15 14 8 -7 12 -16 9 -21z m1838 -74 l3 -35 51 34 51 35 31 -19 c40 -25
58 -61 87 -174 13 -50 29 -104 36 -119 12 -26 10 -30 -27 -68 -66 -69 -196
-143 -349 -199 -66 -25 -299 -91 -455 -130 -69 -17 -156 -40 -195 -52 -112
-33 -202 -23 -402 45 -157 54 -218 82 -277 131 -27 23 -29 28 -23 76 5 45 3
57 -23 98 -48 79 -48 94 2 135 46 37 107 71 168 92 31 11 50 11 116 -1 113
-21 116 -24 54 -43 -30 -10 -75 -28 -99 -40 -42 -22 -50 -22 -96 -6 -20 7 -20
6 -1 -9 27 -22 54 -20 119 9 108 48 235 68 487 79 69 3 186 9 260 12 122 5
245 24 259 41 4 3 -5 3 -19 -1 -28 -7 -232 -27 -236 -23 -2 2 70 27 159 56 89
30 189 66 222 82 82 38 93 37 97 -6z m-1642 -35 c6 0 10 -3 10 -6 0 -9 -28
-34 -39 -34 -19 0 -81 62 -81 81 0 17 5 15 50 -11 28 -17 55 -30 60 -30z m314
-89 c15 -6 5 -12 -44 -30 -57 -21 -69 -22 -117 -11 -74 16 -68 33 10 27 34 -2
51 -2 37 1 -21 5 -17 7 20 12 63 10 72 10 94 1z m1631 -436 c13 -66 29 -187
35 -268 13 -166 14 -171 60 -280 18 -43 40 -115 50 -160 l18 -82 -25 -37 -24
-36 -55 25 c-30 13 -59 23 -65 21 -7 -2 16 -15 50 -28 33 -14 61 -28 61 -31 0
-4 -21 -26 -47 -50 -42 -39 -47 -41 -54 -23 -20 55 -27 142 -28 369 -2 273
-21 546 -47 668 -15 75 -15 79 3 99 18 20 18 20 31 -23 7 -24 23 -98 37 -164z
m-2038 103 c-3 -8 -6 -5 -6 6 -1 11 2 17 5 13 3 -3 4 -12 1 -19z m30 -20 c-3
-8 -6 -5 -6 6 -1 11 2 17 5 13 3 -3 4 -12 1 -19z m-11 -23 c3 -8 -4 -31 -17
-52 -13 -20 -25 -31 -27 -25 -2 7 -7 10 -11 7 -5 -2 -6 8 -3 23 l6 27 8 -25
c5 -17 6 -12 3 18 -5 37 -3 42 15 42 11 0 23 -7 26 -15z m214 -274 l10 -39 53
13 c28 7 60 16 70 20 15 6 17 1 17 -46 0 -74 -30 -219 -45 -219 -17 0 -78 69
-97 110 -26 58 -42 113 -40 143 1 15 -2 27 -8 27 -5 0 -10 5 -10 10 0 6 7 10
16 10 9 0 12 5 8 12 -4 7 -3 8 4 4 6 -4 16 -24 22 -45z m-99 -16 c5 4 9 1 9
-4 0 -6 -5 -11 -11 -11 -5 0 -7 -5 -3 -12 5 -8 11 -6 19 5 7 9 15 14 18 10 10
-10 8 -20 -6 -35 -7 -7 -26 -34 -41 -60 -15 -27 -29 -48 -29 -48 -1 0 -2 37
-2 83 0 79 11 112 28 81 5 -8 12 -12 18 -9z m1854 -615 c-9 -16 -20 -30 -25
-30 -17 0 -11 38 8 49 29 17 33 12 17 -19z m-1055 -68 c0 -11 -51 -111 -59
-116 -12 -8 -19 12 -27 74 l-7 50 47 -1 c25 -1 46 -4 46 -7z m-90 -139 c0 -14
-308 -198 -316 -190 -7 7 78 66 176 124 132 78 140 82 140 66z m147 -44 c48
-17 108 -42 133 -55 47 -25 111 -74 96 -74 -25 0 -335 143 -330 152 7 11 1 12
101 -23z m-143 -43 c-8 -20 -13 -20 -38 1 -12 10 -15 11 -8 3 13 -15 17 -50 5
-50 -3 0 -15 8 -26 18 -19 16 -20 16 -8 -5 14 -27 10 -28 -28 -8 -28 14 -29
14 -23 -7 3 -15 1 -19 -9 -16 -34 11 -18 37 47 77 65 38 68 39 81 21 7 -10 10
-25 7 -34z m149 -8 c48 -24 87 -46 87 -50 0 -4 -21 -10 -46 -14 -38 -5 -48 -4
-56 10 -7 13 -13 14 -29 5 -26 -13 -36 -5 -19 16 12 14 10 15 -13 11 -33 -6
-41 3 -20 26 20 23 6 24 -19 1 -23 -21 -33 -11 -16 16 18 29 31 27 131 -21z
m1075 -72 c40 -21 88 -75 113 -126 11 -25 30 -61 40 -80 42 -77 15 -103 -100
-98 -64 3 -66 4 -64 28 7 81 2 144 -16 198 -32 94 -28 107 27 78z"/>
<path d="M2925 5290 c-3 -5 -1 -10 4 -10 6 0 11 5 11 10 0 6 -2 10 -4 10 -3 0
-8 -4 -11 -10z"/>
<path d="M2860 3394 c-21 -13 -22 -14 -4 -9 12 3 42 10 65 14 l44 9 -40 1
c-22 0 -51 -6 -65 -15z"/>
<path d="M2504 2379 c-19 -22 -19 -22 1 -11 15 7 26 7 40 0 20 -11 20 -11 1
10 -11 12 -20 22 -21 22 -1 0 -10 -10 -21 -21z"/>
<path d="M3580 2470 c0 -5 5 -10 10 -10 6 0 10 5 10 10 0 6 -4 10 -10 10 -5 0
-10 -4 -10 -10z"/>
<path d="M1708 1827 c4 -14 7 -16 13 -5 12 19 11 25 -5 25 -8 0 -11 -8 -8 -20z"/>
<path d="M1822 1530 c0 -19 2 -27 5 -17 2 9 2 25 0 35 -3 9 -5 1 -5 -18z"/>
<path d="M1142 2810 c0 -14 2 -19 5 -12 2 6 2 18 0 25 -3 6 -5 1 -5 -13z"/>
<path d="M1152 2760 c0 -14 2 -19 5 -12 2 6 2 18 0 25 -3 6 -5 1 -5 -13z"/>
<path d="M4587 1450 c3 -25 5 -57 4 -72 -1 -16 3 -28 9 -28 14 0 11 69 -6 110
l-14 35 7 -45z"/>
<path d="M4654 1403 c1 -26 -3 -59 -7 -73 -8 -24 -7 -24 7 -6 17 21 21 92 7
114 -5 8 -8 -5 -7 -35z"/>
</g>
</svg>
